<svg xmlns="http://www.w3.org/2000/svg" viewBox="0 0 160 180"><ellipse cx="80" cy="163" rx="49" ry="7" fill="#17241d" opacity=".12"/><path d="M50 18 L110 18 L118 150 Q80 159 42 150 Z" fill="#fffdf4" stroke="#cfc5ad" stroke-width="2"/><path d="M50 18H110L112 42H48Z" fill="#ae6937"/><path d="M44 132Q80 140 116 132L118 150Q80 159 42 150Z" fill="#ae6937"/><rect x="53" y="65" width="54" height="64" rx="12" fill="#e5d9bc"/><ellipse cx="65" cy="84" rx="4" ry="9" transform="rotate(-8 65 84)" fill="#b99161"/><ellipse cx="81" cy="84" rx="4" ry="9" transform="rotate(8 81 84)" fill="#b99161"/><ellipse cx="97" cy="84" rx="4" ry="9" transform="rotate(-21 97 84)" fill="#b99161"/><ellipse cx="65" cy="102" rx="4" ry="9" transform="rotate(10 65 102)" fill="#b99161"/><ellipse cx="81" cy="102" rx="4" ry="9" transform="rotate(-19 81 102)" fill="#b99161"/><ellipse cx="97" cy="102" rx="4" ry="9" transform="rotate(-3 97 102)" fill="#b99161"/><ellipse cx="65" cy="120" rx="4" ry="9" transform="rotate(-17 65 120)" fill="#b99161"/><ellipse cx="81" cy="120" rx="4" ry="9" transform="rotate(-1 81 120)" fill="#b99161"/><ellipse cx="97" cy="120" rx="4" ry="9" transform="rotate(15 97 120)" fill="#b99161"/><path d="M65 53H95" stroke="#ae6937" stroke-width="5" stroke-linecap="round"/></svg>